<mxfile host="65bd71144e">
    <diagram name="Page-1" id="L9pIz6ykhndlbjjti8eC">
        <mxGraphModel dx="545" dy="469" grid="1" gridSize="10" guides="1" tooltips="1" connect="1" arrows="1" fold="1" page="1" pageScale="1" pageWidth="850" pageHeight="1100" math="0" shadow="0">
            <root>
                <mxCell id="0"/>
                <mxCell id="1" parent="0"/>
                <mxCell id="EbVQx5wD54C_xNYTqxab-5" style="edgeStyle=orthogonalEdgeStyle;rounded=0;orthogonalLoop=1;jettySize=auto;html=1;entryX=0.5;entryY=0;entryDx=0;entryDy=0;" parent="1" source="EbVQx5wD54C_xNYTqxab-1" edge="1">
                    <mxGeometry relative="1" as="geometry">
                        <mxPoint x="130" y="180" as="targetPoint"/>
                    </mxGeometry>
                </mxCell>
                <mxCell id="EbVQx5wD54C_xNYTqxab-1" value="Start" style="rounded=1;whiteSpace=wrap;html=1;" parent="1" vertex="1">
                    <mxGeometry x="70" y="80" width="120" height="60" as="geometry"/>
                </mxCell>
                <mxCell id="EbVQx5wD54C_xNYTqxab-2" value="End" style="rounded=1;whiteSpace=wrap;html=1;" parent="1" vertex="1">
                    <mxGeometry x="70" y="460" width="120" height="60" as="geometry"/>
                </mxCell>
                <mxCell id="EbVQx5wD54C_xNYTqxab-11" style="edgeStyle=orthogonalEdgeStyle;rounded=0;orthogonalLoop=1;jettySize=auto;html=1;entryX=0.5;entryY=0;entryDx=0;entryDy=0;" parent="1" source="EbVQx5wD54C_xNYTqxab-7" target="EbVQx5wD54C_xNYTqxab-8" edge="1">
                    <mxGeometry relative="1" as="geometry"/>
                </mxCell>
                <mxCell id="EbVQx5wD54C_xNYTqxab-7" value="a = 1.75" style="rounded=0;whiteSpace=wrap;html=1;" parent="1" vertex="1">
                    <mxGeometry x="70" y="180" width="120" height="30" as="geometry"/>
                </mxCell>
                <mxCell id="EbVQx5wD54C_xNYTqxab-12" style="edgeStyle=orthogonalEdgeStyle;rounded=0;orthogonalLoop=1;jettySize=auto;html=1;" parent="1" source="EbVQx5wD54C_xNYTqxab-8" edge="1">
                    <mxGeometry relative="1" as="geometry">
                        <mxPoint x="130" y="320" as="targetPoint"/>
                    </mxGeometry>
                </mxCell>
                <mxCell id="EbVQx5wD54C_xNYTqxab-8" value="b = 2.18" style="rounded=0;whiteSpace=wrap;html=1;" parent="1" vertex="1">
                    <mxGeometry x="70" y="250" width="120" height="30" as="geometry"/>
                </mxCell>
                <mxCell id="EbVQx5wD54C_xNYTqxab-13" style="edgeStyle=orthogonalEdgeStyle;rounded=0;orthogonalLoop=1;jettySize=auto;html=1;" parent="1" source="EbVQx5wD54C_xNYTqxab-9" target="EbVQx5wD54C_xNYTqxab-10" edge="1">
                    <mxGeometry relative="1" as="geometry"/>
                </mxCell>
                <mxCell id="EbVQx5wD54C_xNYTqxab-9" value="mul = a * b" style="rounded=0;whiteSpace=wrap;html=1;" parent="1" vertex="1">
                    <mxGeometry x="45" y="330" width="170" height="30" as="geometry"/>
                </mxCell>
                <mxCell id="EbVQx5wD54C_xNYTqxab-14" style="edgeStyle=orthogonalEdgeStyle;rounded=0;orthogonalLoop=1;jettySize=auto;html=1;" parent="1" source="EbVQx5wD54C_xNYTqxab-10" target="EbVQx5wD54C_xNYTqxab-2" edge="1">
                    <mxGeometry relative="1" as="geometry"/>
                </mxCell>
                <mxCell id="EbVQx5wD54C_xNYTqxab-10" value="mul" style="shape=document;whiteSpace=wrap;html=1;boundedLbl=1;" parent="1" vertex="1">
                    <mxGeometry x="85" y="390" width="90" height="50" as="geometry"/>
                </mxCell>
                <mxCell id="EbVQx5wD54C_xNYTqxab-15" value="a=1.75" style="rounded=0;whiteSpace=wrap;html=1;" parent="1" vertex="1">
                    <mxGeometry x="295" y="40" width="120" height="60" as="geometry"/>
                </mxCell>
                <mxCell id="EbVQx5wD54C_xNYTqxab-16" value="b=2.18" style="rounded=0;whiteSpace=wrap;html=1;" parent="1" vertex="1">
                    <mxGeometry x="295" y="100" width="120" height="60" as="geometry"/>
                </mxCell>
                <mxCell id="EbVQx5wD54C_xNYTqxab-17" value="mul = 1.75 * 2.18&lt;br&gt;3.815" style="rounded=0;whiteSpace=wrap;html=1;" parent="1" vertex="1">
                    <mxGeometry x="415" y="40" width="120" height="60" as="geometry"/>
                </mxCell>
                <mxCell id="EbVQx5wD54C_xNYTqxab-18" value="Output&lt;br&gt;3.815" style="rounded=0;whiteSpace=wrap;html=1;" parent="1" vertex="1">
                    <mxGeometry x="415" y="100" width="120" height="60" as="geometry"/>
                </mxCell>
                <mxCell id="EbVQx5wD54C_xNYTqxab-19" value="" style="rounded=0;whiteSpace=wrap;html=1;" parent="1" vertex="1">
                    <mxGeometry x="295" y="160" width="120" height="60" as="geometry"/>
                </mxCell>
                <mxCell id="EbVQx5wD54C_xNYTqxab-20" value="" style="rounded=0;whiteSpace=wrap;html=1;" parent="1" vertex="1">
                    <mxGeometry x="415" y="160" width="120" height="60" as="geometry"/>
                </mxCell>
            </root>
        </mxGraphModel>
    </diagram>
</mxfile>